{
  "accessors": [
    {
      "bufferView": 2,
      "componentType": 5126,
      "count": 28652,
      "max": [
        1.0009595155715942,
        0.3543826937675476,
        1.0010037422180176
      ],
      "min": [
        -1.0011968612670898,
        -0.0012499999720603228,
        -1.0011578798294067
      ],
      "type": "VEC3"
    },
    {
      "bufferView": 2,
      "byteOffset": 343824,
      "componentType": 5126,
      "count": 28652,
      "max": [
        0.9999986290931702,
        0.9998224973678589,
        0.9999658465385437
      ],
      "min": [
        -0.9999842643737793,
        -0.9962986707687378,
        -0.9998942017555237
      ],
      "type": "VEC3"
    },
    {
      "bufferView": 1,
      "componentType": 5126,
      "count": 28652,
      "max": [
        1.0,
        1.0
      ],
      "min": [
        0.0,
        0.0
      ],
      "type": "VEC2"
    },
    {
      "bufferView": 0,
      "componentType": 5125,
      "count": 46128,
      "type": "SCALAR"
    },
    {
      "bufferView": 2,
      "byteOffset": 687648,
      "componentType": 5126,
      "count": 2878,
      "max": [
        1.0,
        0.3531329929828644,
        1.0
      ],
      "min": [
        -1.0,
        0.0,
        -1.0
      ],
      "type": "VEC3"
    },
    {
      "bufferView": 2,
      "byteOffset": 722184,
      "componentType": 5126,
      "count": 2878,
      "max": [
        0.9463616013526917,
        1.0,
        0.9648496508598328
      ],
      "min": [
        -0.9612851142883301,
        0.22744780778884888,
        -0.929352879524231
      ],
      "type": "VEC3"
    },
    {
      "bufferView": 1,
      "byteOffset": 229216,
      "componentType": 5126,
      "count": 2878,
      "max": [
        1.0,
        1.0
      ],
      "min": [
        0.0,
        0.0
      ],
      "type": "VEC2"
    },
    {
      "bufferView": 0,
      "byteOffset": 184512,
      "componentType": 5125,
      "count": 5766,
      "type": "SCALAR"
    }
  ],
  "asset": {
    "extras": {
      "author": "0418.rick (https://sketchfab.com/0418.rick)",
      "license": "CC-BY-4.0 (http://creativecommons.org/licenses/by/4.0/)",
      "source": "https://sketchfab.com/3d-models/vaporwave-mountains-655309efbf7647f9a6f573a1196cfdc9",
      "title": "Vaporwave Mountains"
    },
    "generator": "Sketchfab-12.65.0",
    "version": "2.0"
  },
  "bufferViews": [
    {
      "buffer": 0,
      "byteLength": 207576,
      "name": "floatBufferViews",
      "target": 34963
    },
    {
      "buffer": 0,
      "byteLength": 252240,
      "byteOffset": 207576,
      "byteStride": 8,
      "name": "floatBufferViews",
      "target": 34962
    },
    {
      "buffer": 0,
      "byteLength": 756720,
      "byteOffset": 459816,
      "byteStride": 12,
      "name": "floatBufferViews",
      "target": 34962
    }
  ],
  "buffers": [
    {
      "byteLength": 1216536,
      "uri": "scene.bin"
    }
  ],
  "materials": [
    {
      "doubleSided": true,
      "name": "Material.001",
      "pbrMetallicRoughness": {
        "baseColorFactor": [
          0.011043692117762566,
          0.34593215422195683,
          0.7187635247196932,
          1.0
        ],
        "metallicFactor": 0.14195884146341464,
        "roughnessFactor": 0.5626905487804879
      }
    },
    {
      "doubleSided": true,
      "name": "Material.002",
      "pbrMetallicRoughness": {
        "baseColorFactor": [
          0.10286909763063144,
          0.0,
          1.0,
          1.0
        ],
        "roughnessFactor": 0.5
      }
    }
  ],
  "meshes": [
    {
      "name": "Object_0",
      "primitives": [
        {
          "attributes": {
            "NORMAL": 1,
            "POSITION": 0,
            "TEXCOORD_0": 2
          },
          "indices": 3,
          "material": 0,
          "mode": 4
        }
      ]
    },
    {
      "name": "Object_1",
      "primitives": [
        {
          "attributes": {
            "NORMAL": 5,
            "POSITION": 4,
            "TEXCOORD_0": 6
          },
          "indices": 7,
          "material": 1,
          "mode": 4
        }
      ]
    }
  ],
  "nodes": [
    {
      "children": [
        1
      ],
      "matrix": [
        1.0,
        0.0,
        0.0,
        0.0,
        0.0,
        2.220446049250313e-16,
        -1.0,
        0.0,
        0.0,
        1.0,
        2.220446049250313e-16,
        0.0,
        0.0,
        0.0,
        0.0,
        1.0
      ],
      "name": "Sketchfab_model"
    },
    {
      "children": [
        2
      ],
      "name": "root"
    },
    {
      "children": [
        3,
        5
      ],
      "matrix": [
        1.0,
        0.0,
        0.0,
        0.0,
        0.0,
        2.220446049250313e-16,
        1.0,
        0.0,
        0.0,
        -1.0,
        2.220446049250313e-16,
        0.0,
        0.0,
        0.0,
        0.0,
        1.0
      ],
      "name": "GLTF_SceneRootNode"
    },
    {
      "children": [
        4
      ],
      "matrix": [
        8.0,
        0.0,
        0.0,
        0.0,
        0.0,
        8.0,
        0.0,
        0.0,
        0.0,
        0.0,
        8.0,
        0.0,
        0.0,
        0.0,
        0.0,
        1.0
      ],
      "name": "Plane_2"
    },
    {
      "mesh": 0,
      "name": "Object_4"
    },
    {
      "children": [
        6
      ],
      "matrix": [
        8.0,
        0.0,
        0.0,
        0.0,
        0.0,
        8.0,
        0.0,
        0.0,
        0.0,
        0.0,
        8.0,
        0.0,
        0.0,
        0.0,
        0.0,
        1.0
      ],
      "name": "Plane.001_3"
    },
    {
      "mesh": 1,
      "name": "Object_6"
    }
  ],
  "scene": 0,
  "scenes": [
    {
      "name": "Sketchfab_Scene",
      "nodes": [
        0
      ]
    }
  ]
}
